<svg width="50" height="50" viewBox="0 0 50 50" fill="none" xmlns="http://www.w3.org/2000/svg">
<rect width="50" height="50" rx="3.75" fill="#2DB059"/>
<path fill-rule="evenodd" clip-rule="evenodd" d="M25.011 4.78906C22.153 4.78906 19.8242 8.23993 19.7235 12.5548H15.9891H15.6604L15.538 12.8598C13.8599 17.0413 11.94 23.4449 10.4432 28.7863C9.69379 31.4605 9.04879 33.8745 8.59113 35.62C8.36229 36.4928 8.18025 37.1986 8.05539 37.6863C7.99295 37.9302 7.94481 38.1195 7.91226 38.248L7.87528 38.3942L7.86587 38.4316L7.86348 38.4411L7.86287 38.4435L7.86272 38.4442C7.86268 38.4443 7.86266 38.4444 8.33414 38.5627L7.86266 38.4444L7.71094 39.0488H8.33414H24.6733H24.7215H41.6557H42.2787L42.1272 38.4445L41.6557 38.5627C42.1272 38.4445 42.1272 38.4444 42.1271 38.4442L42.127 38.4436L42.1264 38.4412L42.124 38.4317L42.1145 38.3943L42.0776 38.2479C42.045 38.1193 41.9969 37.9298 41.9344 37.6857C41.8096 37.1976 41.6275 36.4913 41.3987 35.6179C40.941 33.8712 40.296 31.4557 39.5466 28.7805C38.0499 23.4372 36.1299 17.0334 34.4517 12.8595L34.3292 12.5548H34.0007H30.2986C30.1979 8.23993 27.8691 4.78906 25.011 4.78906ZM25.0251 5.23903C27.5831 5.23903 29.6958 8.42627 30.0197 12.5548H25.3487H24.6733H20.0305C20.3543 8.42627 22.467 5.23903 25.0251 5.23903ZM24.6733 38.0766H24.7215H41.0309L40.9926 37.9267C40.8681 37.4402 40.6865 36.7357 40.4582 35.8643C40.0016 34.1214 39.358 31.7114 38.6105 29.0427C37.1498 23.8284 35.2984 17.6501 33.6711 13.527H25.3487H24.6733H16.3189C14.6915 17.6576 12.84 23.8361 11.3793 29.0486C10.6318 31.7163 9.98822 34.1249 9.53156 35.8666C9.30325 36.7374 9.12168 37.4413 8.99723 37.9274L8.95908 38.0766H24.6733ZM30.2893 25.3432C30.2893 28.7958 27.3883 31.5947 23.8098 31.5947C22.7112 31.5947 21.6765 31.3309 20.77 30.8655L22.4676 25.1505C23.2054 25.1384 23.9322 24.5125 24.2171 23.5534C24.5632 22.3994 24.135 21.2145 23.2631 20.9057C22.3972 20.599 21.4136 21.284 21.0734 22.4401C20.7885 23.3992 21.0405 24.3717 21.6313 24.8543L19.9866 30.391C18.3761 29.2537 17.3302 27.4163 17.3302 25.3432C17.3302 23.5853 18.0822 21.9968 19.2929 20.861C19.4101 20.2421 19.6961 19.67 20.1102 19.1788C17.9021 20.4106 16.4164 22.7136 16.4164 25.3514C16.4164 29.2864 19.7228 32.4763 23.8013 32.4763C27.8799 32.4763 31.1862 29.2864 31.1862 25.3514C31.1862 23.107 30.1106 21.105 28.4296 19.799L28.436 19.8105C28.1341 19.6367 27.4256 19.9645 27.4256 19.9645C26.2378 20.4687 26.1398 22.6924 26.1317 22.9141L26.1312 22.9181L26.131 22.9226L26.131 22.9319L26.1317 22.9141C26.165 22.7004 27.34 21.3709 27.34 21.3709C28.2014 20.6784 28.4581 20.9813 28.8199 21.4083C28.8882 21.489 28.9603 21.5741 29.041 21.6577L29.04 21.6522C29.8255 22.6866 30.2893 23.9626 30.2893 25.3432ZM31.4295 25.1001C31.879 24.8744 33.1658 24.736 33.2647 24.7814C33.2647 24.7814 33.5065 24.7814 33.3966 25.0452C33.2867 25.309 32.7954 25.9393 31.9009 26.7317C32.6373 26.4286 34.103 25.6052 34.0747 24.736C34.0463 23.8668 32.045 24.5286 31.4295 25.1001ZM18.4581 42.5802C18.462 42.4874 18.468 42.3906 18.4759 42.2898C18.3889 42.2918 18.2912 42.2938 18.1825 42.2958C18.0739 42.2977 17.9652 42.2987 17.8566 42.2987H17.5633H17.2699C17.1613 42.2987 17.0526 42.2977 16.944 42.2958C16.8373 42.2938 16.7386 42.2918 16.6477 42.2898C16.6556 42.3906 16.6605 42.4874 16.6625 42.5802C16.6665 42.6731 16.6684 42.7442 16.6684 42.7935C16.6684 42.837 16.6675 42.8785 16.6655 42.918C16.6655 42.9575 16.6635 42.9911 16.6596 43.0187H16.7277C16.7633 42.8508 16.8047 42.7195 16.8522 42.6247C16.8996 42.5279 16.9568 42.4597 17.024 42.4202C17.0912 42.3787 17.1702 42.358 17.261 42.358H17.3262V44.0498C17.3262 44.1289 17.3183 44.1881 17.3025 44.2276C17.2867 44.2671 17.2561 44.2938 17.2107 44.3076C17.1652 44.3195 17.0981 44.3264 17.0092 44.3284V44.3876C17.0684 44.3856 17.1465 44.3837 17.2433 44.3817C17.3401 44.3797 17.4428 44.3787 17.5514 44.3787C17.662 44.3787 17.7677 44.3797 17.8684 44.3817C17.9712 44.3837 18.0531 44.3856 18.1144 44.3876V44.3284C18.0275 44.3264 17.9613 44.3195 17.9159 44.3076C17.8704 44.2938 17.8388 44.2671 17.821 44.2276C17.8052 44.1881 17.7973 44.1289 17.7973 44.0498V42.358H17.8655C17.9564 42.358 18.0354 42.3787 18.1025 42.4202C18.1697 42.4597 18.227 42.5279 18.2744 42.6247C18.3238 42.7214 18.3643 42.8528 18.3959 43.0187H18.464C18.462 42.9911 18.4601 42.9575 18.4581 42.918C18.4561 42.8785 18.4551 42.837 18.4551 42.7935C18.4551 42.7442 18.4561 42.6731 18.4581 42.5802ZM20.1925 44.1387L19.4725 42.2839C19.4408 42.2859 19.4063 42.2869 19.3687 42.2869C19.3332 42.2869 19.2996 42.2859 19.268 42.2839L18.5925 44.0173C18.551 44.1259 18.5085 44.2029 18.465 44.2484C18.4216 44.2938 18.3791 44.3205 18.3376 44.3284V44.3876C18.3673 44.3837 18.4008 44.3817 18.4384 44.3817C18.4779 44.3797 18.5194 44.3787 18.5628 44.3787C18.6241 44.3787 18.6843 44.3797 18.7436 44.3817C18.8028 44.3817 18.865 44.3837 18.9302 44.3876V44.3284C18.871 44.3264 18.8196 44.3185 18.7762 44.3047C18.7347 44.2889 18.7041 44.2622 18.6843 44.2247C18.6665 44.1871 18.6616 44.1338 18.6695 44.0647C18.6794 43.9955 18.706 43.9066 18.7495 43.798L18.828 43.5935H19.4726L19.6502 44.0795C19.6897 44.1802 19.6957 44.2464 19.668 44.278C19.6423 44.3076 19.5791 44.3244 19.4784 44.3284V44.3876C19.5258 44.3837 19.59 44.3817 19.671 44.3817C19.752 44.3797 19.8379 44.3787 19.9287 44.3787C20.0097 44.3787 20.0897 44.3797 20.1687 44.3817C20.2497 44.3817 20.3199 44.3837 20.3791 44.3876V44.3284C20.3515 44.3264 20.3199 44.3126 20.2843 44.2869C20.2507 44.2592 20.2201 44.2098 20.1925 44.1387ZM19.4509 43.5343L19.1581 42.7334L18.8507 43.5343H19.4509ZM22.3538 42.3491V42.2898C22.3222 42.2918 22.2827 42.2938 22.2353 42.2958C22.1899 42.2977 22.1434 42.2987 22.096 42.2987C22.0427 42.2987 21.9854 42.2977 21.9242 42.2958C21.863 42.2938 21.8136 42.2918 21.776 42.2898V42.3491C21.863 42.357 21.9262 42.3738 21.9657 42.3995C22.0072 42.4251 22.0338 42.4676 22.0457 42.5269C22.0575 42.5842 22.0634 42.6671 22.0634 42.7758V43.7032L20.9168 42.2898C20.8812 42.2918 20.8417 42.2938 20.7983 42.2958C20.7548 42.2977 20.7094 42.2987 20.662 42.2987C20.6165 42.2987 20.5701 42.2977 20.5227 42.2958C20.4753 42.2938 20.4358 42.2918 20.4042 42.2898V42.3491C20.4654 42.3511 20.5118 42.359 20.5434 42.3728C20.577 42.3847 20.5988 42.4084 20.6086 42.4439C20.6205 42.4775 20.6264 42.5308 20.6264 42.6039V43.9372C20.6264 44.0321 20.6205 44.1071 20.6086 44.1624C20.5988 44.2158 20.578 44.2543 20.5464 44.278C20.5148 44.3017 20.4674 44.3185 20.4042 44.3284V44.3876C20.4358 44.3837 20.4753 44.3817 20.5227 44.3817C20.5701 44.3797 20.6165 44.3787 20.662 44.3787C20.7153 44.3787 20.7726 44.3797 20.8338 44.3817C20.8951 44.3817 20.9444 44.3837 20.982 44.3876V44.3284C20.8951 44.3185 20.8309 44.3017 20.7894 44.278C20.7499 44.2523 20.7242 44.2108 20.7123 44.1535C20.7005 44.0943 20.6946 44.0103 20.6946 43.9017V42.7639L21.9805 44.3935C22.0081 44.3916 22.0338 44.3906 22.0575 44.3906C22.0832 44.3906 22.1079 44.3916 22.1316 44.3935V42.7402C22.1316 42.6434 22.1365 42.5684 22.1464 42.515C22.1583 42.4617 22.18 42.4232 22.2116 42.3995C22.2432 42.3738 22.2906 42.357 22.3538 42.3491ZM23.4551 42.3491V42.2898C23.4018 42.2918 23.3346 42.2938 23.2536 42.2958C23.1726 42.2977 23.0906 42.2987 23.0077 42.2987C22.9109 42.2987 22.821 42.2977 22.7381 42.2958C22.6571 42.2938 22.5909 42.2918 22.5395 42.2898V42.3491C22.6008 42.3511 22.6472 42.359 22.6788 42.3728C22.7124 42.3847 22.7341 42.4084 22.744 42.4439C22.7558 42.4775 22.7618 42.5308 22.7618 42.6039V44.0735C22.7618 44.1447 22.7558 44.198 22.744 44.2335C22.7341 44.2691 22.7134 44.2928 22.6818 44.3047C22.6502 44.3165 22.6027 44.3244 22.5395 44.3284V44.3876C22.5909 44.3837 22.6571 44.3817 22.7381 44.3817C22.821 44.3797 22.9109 44.3787 23.0077 44.3787C23.0906 44.3787 23.1726 44.3797 23.2536 44.3817C23.3346 44.3817 23.4018 44.3837 23.4551 44.3876V44.3284C23.3919 44.3244 23.3445 44.3165 23.3129 44.3047C23.2813 44.2928 23.2595 44.2691 23.2477 44.2335C23.2378 44.198 23.2329 44.1447 23.2329 44.0735V42.6039C23.2329 42.5308 23.2378 42.4775 23.2477 42.4439C23.2576 42.4084 23.2783 42.3847 23.3099 42.3728C23.3435 42.359 23.3919 42.3511 23.4551 42.3491ZM25.2209 42.5476C25.2249 42.4647 25.2308 42.3787 25.2387 42.2898C25.1479 42.2938 25.0442 42.2968 24.9276 42.2987H24.6195H24.4298H24.1809C24.0921 42.2968 24.0022 42.2958 23.9113 42.2958C23.8205 42.2938 23.7345 42.2918 23.6535 42.2898V42.3491C23.7148 42.3511 23.7612 42.359 23.7928 42.3728C23.8264 42.3847 23.8481 42.4084 23.858 42.4439C23.8698 42.4775 23.8758 42.5308 23.8758 42.6039V44.0735C23.8758 44.1447 23.8698 44.198 23.858 44.2335C23.8481 44.2691 23.8274 44.2928 23.7958 44.3047C23.7642 44.3165 23.7168 44.3244 23.6535 44.3284V44.3876C23.7187 44.3856 23.7918 44.3837 23.8728 44.3817C23.9538 44.3797 24.0368 44.3787 24.1217 44.3787C24.2284 44.3787 24.3301 44.3797 24.4269 44.3817C24.5237 44.3837 24.6027 44.3856 24.6639 44.3876V44.3224C24.575 44.3205 24.5079 44.3135 24.4624 44.3017C24.417 44.2898 24.3864 44.2651 24.3706 44.2276C24.3548 44.1901 24.3469 44.1328 24.3469 44.0558V43.3743H24.4506C24.5296 43.3743 24.5938 43.3931 24.6432 43.4306C24.6926 43.4661 24.7301 43.5135 24.7558 43.5728C24.7814 43.6321 24.8002 43.6963 24.8121 43.7654H24.8802C24.8723 43.6528 24.8674 43.5669 24.8654 43.5076C24.8634 43.4484 24.8624 43.394 24.8624 43.3447C24.8624 43.2953 24.8614 43.241 24.8595 43.1817C24.8595 43.1224 24.8634 43.0365 24.8713 42.9239H24.8032C24.7953 42.9634 24.7834 43.0059 24.7676 43.0513C24.7518 43.0968 24.7301 43.1402 24.7024 43.1817C24.6748 43.2212 24.6402 43.2538 24.5987 43.2795C24.5592 43.3032 24.5098 43.315 24.4506 43.315H24.3469V42.5684C24.3469 42.5071 24.3518 42.4617 24.3617 42.4321C24.3716 42.4024 24.3913 42.3827 24.4209 42.3728C24.4506 42.3629 24.494 42.358 24.5513 42.358H24.6491C24.74 42.358 24.818 42.3768 24.8832 42.4143C24.9503 42.4518 25.0066 42.515 25.0521 42.6039C25.0975 42.6908 25.133 42.8113 25.1587 42.9654H25.2269C25.2249 42.9377 25.2229 42.9042 25.2209 42.8647C25.219 42.8252 25.218 42.7837 25.218 42.7402C25.218 42.6948 25.219 42.6306 25.2209 42.5476ZM26.9744 42.5417C26.9784 42.4607 26.9843 42.3768 26.9922 42.2898C26.9013 42.2938 26.7976 42.2968 26.6811 42.2987H26.3729H26.1833H25.9344C25.8455 42.2968 25.7557 42.2958 25.6648 42.2958C25.5739 42.2938 25.488 42.2918 25.407 42.2898V42.3491C25.4682 42.3511 25.5147 42.359 25.5463 42.3728C25.5799 42.3847 25.6016 42.4084 25.6115 42.4439C25.6233 42.4775 25.6292 42.5308 25.6292 42.6039V44.0735C25.6292 44.1447 25.6233 44.198 25.6115 44.2335C25.6016 44.2691 25.5808 44.2928 25.5492 44.3047C25.5176 44.3165 25.4702 44.3244 25.407 44.3284V44.3876C25.488 44.3856 25.5739 44.3847 25.6648 44.3847C25.7557 44.3827 25.8455 44.3817 25.9344 44.3817C26.0233 44.3797 26.1063 44.3787 26.1833 44.3787H26.3729C26.4717 44.3787 26.5843 44.3797 26.7107 44.3817C26.8371 44.3817 26.9507 44.3837 27.0515 44.3876C27.0416 44.2987 27.0357 44.2128 27.0337 44.1298C27.0317 44.0469 27.0307 43.9827 27.0307 43.9372C27.0307 43.8345 27.0337 43.7516 27.0396 43.6884H26.9715C26.9458 43.8464 26.9082 43.9718 26.8589 44.0647C26.8115 44.1575 26.7532 44.2237 26.684 44.2632C26.6169 44.3007 26.5389 44.3195 26.45 44.3195H26.3048C26.2475 44.3195 26.204 44.3145 26.1744 44.3047C26.1448 44.2948 26.125 44.275 26.1152 44.2454C26.1053 44.2158 26.1003 44.1703 26.1003 44.1091V43.3624H26.1952C26.2742 43.3624 26.3384 43.3812 26.3878 43.4187C26.4371 43.4543 26.4747 43.5017 26.5003 43.561C26.528 43.6202 26.5468 43.6844 26.5566 43.7535H26.6248C26.6169 43.641 26.612 43.555 26.61 43.4958C26.608 43.4365 26.607 43.3822 26.607 43.3328C26.607 43.2834 26.606 43.2291 26.604 43.1698C26.604 43.1106 26.608 43.0247 26.6159 42.9121H26.5478C26.5399 42.9516 26.528 42.994 26.5122 43.0395C26.4964 43.0849 26.4747 43.1284 26.447 43.1698C26.4213 43.2093 26.3878 43.2419 26.3463 43.2676C26.3048 43.2913 26.2544 43.3032 26.1952 43.3032H26.1003V42.5684C26.1003 42.5071 26.1053 42.4617 26.1152 42.4321C26.125 42.4024 26.1448 42.3827 26.1744 42.3728C26.204 42.3629 26.2475 42.358 26.3048 42.358H26.4263C26.5152 42.358 26.5922 42.3758 26.6574 42.4113C26.7245 42.4449 26.7789 42.5042 26.8203 42.5891C26.8618 42.6721 26.8924 42.7856 26.9122 42.9298H26.9803C26.9784 42.9061 26.9764 42.8765 26.9744 42.841C26.9724 42.8054 26.9715 42.7679 26.9715 42.7284C26.9715 42.6849 26.9724 42.6227 26.9744 42.5417ZM28.9945 44.1387L28.2745 42.2839C28.2429 42.2859 28.2084 42.2869 28.1708 42.2869C28.1353 42.2869 28.1017 42.2859 28.0701 42.2839L27.3945 44.0173C27.3531 44.1259 27.3106 44.2029 27.2671 44.2484C27.2237 44.2938 27.1812 44.3205 27.1397 44.3284V44.3876C27.1694 44.3837 27.2029 44.3817 27.2405 44.3817C27.28 44.3797 27.3214 44.3787 27.3649 44.3787C27.4261 44.3787 27.4864 44.3797 27.5456 44.3817C27.6049 44.3817 27.6671 44.3837 27.7323 44.3876V44.3284C27.6731 44.3264 27.6217 44.3185 27.5782 44.3047C27.5368 44.2889 27.5061 44.2622 27.4864 44.2247C27.4686 44.1871 27.4637 44.1338 27.4716 44.0647C27.4814 43.9955 27.5081 43.9066 27.5516 43.798L27.63 43.5935H28.2747L28.4523 44.0795C28.4918 44.1802 28.4977 44.2464 28.4701 44.278C28.4444 44.3076 28.3812 44.3244 28.2805 44.3284V44.3876C28.3279 44.3837 28.3921 44.3817 28.4731 44.3817C28.554 44.3797 28.64 44.3787 28.7308 44.3787C28.8118 44.3787 28.8918 44.3797 28.9708 44.3817C29.0518 44.3817 29.1219 44.3837 29.1812 44.3876V44.3284C29.1535 44.3264 29.1219 44.3126 29.0864 44.2869C29.0528 44.2592 29.0222 44.2098 28.9945 44.1387ZM28.253 43.5343L27.9602 42.7334L27.6528 43.5343H28.253ZM30.2716 42.2898C30.2083 42.2642 30.1185 42.2513 30.0019 42.2513C29.8874 42.2513 29.7787 42.2711 29.676 42.3106C29.5753 42.3481 29.4933 42.4074 29.4301 42.4884C29.3688 42.5674 29.3382 42.6691 29.3382 42.7935C29.3382 42.9022 29.3619 42.996 29.4093 43.075C29.4587 43.154 29.5239 43.2242 29.6049 43.2854C29.6859 43.3466 29.7728 43.4079 29.8656 43.4691C29.9525 43.5244 30.0286 43.5787 30.0938 43.6321C30.1609 43.6854 30.2133 43.7427 30.2508 43.8039C30.2903 43.8652 30.3101 43.9372 30.3101 44.0202C30.3101 44.0933 30.2933 44.1545 30.2597 44.2039C30.2261 44.2533 30.1817 44.2908 30.1264 44.3165C30.073 44.3402 30.0118 44.3521 29.9427 44.3521C29.8162 44.3521 29.7145 44.3175 29.6375 44.2484C29.5624 44.1792 29.5061 44.0884 29.4686 43.9758C29.433 43.8612 29.4113 43.7387 29.4034 43.6084H29.3353C29.3353 43.7644 29.3343 43.8938 29.3323 43.9965C29.3323 44.0972 29.3313 44.1792 29.3293 44.2424C29.3293 44.3056 29.3274 44.361 29.3234 44.4084H29.3915C29.3975 44.3649 29.4044 44.3323 29.4123 44.3106C29.4222 44.2889 29.437 44.278 29.4567 44.278C29.4804 44.278 29.514 44.2918 29.5575 44.3195C29.6069 44.3452 29.6681 44.3698 29.7412 44.3935C29.8143 44.4172 29.912 44.4291 30.0345 44.4291C30.1669 44.4291 30.2883 44.4084 30.399 44.3669C30.5096 44.3234 30.5985 44.2592 30.6656 44.1743C30.7348 44.0893 30.7693 43.9817 30.7693 43.8513C30.7693 43.7447 30.7466 43.6528 30.7012 43.5758C30.6557 43.4987 30.5955 43.4296 30.5204 43.3684C30.4454 43.3071 30.3604 43.2459 30.2656 43.1847L29.9871 42.9921C29.912 42.9387 29.8548 42.8844 29.8153 42.8291C29.7757 42.7718 29.756 42.7037 29.756 42.6247C29.756 42.5298 29.7866 42.4558 29.8478 42.4024C29.9091 42.3491 29.9871 42.3224 30.0819 42.3224C30.1866 42.3224 30.2745 42.354 30.3456 42.4172C30.4187 42.4785 30.475 42.5575 30.5145 42.6543C30.554 42.7511 30.5777 42.8508 30.5856 42.9535H30.6538V42.6187C30.6557 42.5338 30.6577 42.4656 30.6597 42.4143C30.6636 42.361 30.6666 42.3155 30.6686 42.278H30.6004C30.5945 42.3214 30.5866 42.354 30.5767 42.3758C30.5688 42.3975 30.555 42.4084 30.5353 42.4084C30.5214 42.4084 30.5066 42.4054 30.4908 42.3995L30.4345 42.3669C30.3891 42.3392 30.3348 42.3135 30.2716 42.2898ZM32.7752 42.5802C32.7792 42.4874 32.7851 42.3906 32.793 42.2898C32.7061 42.2918 32.6083 42.2938 32.4997 42.2958C32.391 42.2977 32.2824 42.2987 32.1737 42.2987H31.8804H31.5871C31.4784 42.2987 31.3698 42.2977 31.2611 42.2958C31.1545 42.2938 31.0557 42.2918 30.9648 42.2898C30.9727 42.3906 30.9777 42.4874 30.9797 42.5802C30.9836 42.6731 30.9856 42.7442 30.9856 42.7935C30.9856 42.837 30.9846 42.8785 30.9826 42.918C30.9826 42.9575 30.9806 42.9911 30.9767 43.0187H31.0448C31.0804 42.8508 31.1219 42.7195 31.1693 42.6247C31.2167 42.5279 31.274 42.4597 31.3411 42.4202C31.4083 42.3787 31.4873 42.358 31.5782 42.358H31.6434V44.0498C31.6434 44.1289 31.6355 44.1881 31.6197 44.2276C31.6038 44.2671 31.5732 44.2938 31.5278 44.3076C31.4824 44.3195 31.4152 44.3264 31.3263 44.3284V44.3876C31.3856 44.3856 31.4636 44.3837 31.5604 44.3817C31.6572 44.3797 31.7599 44.3787 31.8685 44.3787C31.9792 44.3787 32.0848 44.3797 32.1856 44.3817C32.2883 44.3837 32.3703 44.3856 32.4315 44.3876V44.3284C32.3446 44.3264 32.2784 44.3195 32.233 44.3076C32.1876 44.2938 32.1559 44.2671 32.1382 44.2276C32.1224 44.1881 32.1145 44.1289 32.1145 44.0498V42.358H32.1826C32.2735 42.358 32.3525 42.3787 32.4197 42.4202C32.4868 42.4597 32.5441 42.5279 32.5915 42.6247C32.6409 42.7214 32.6814 42.8528 32.713 43.0187H32.7811C32.7792 42.9911 32.7772 42.9575 32.7752 42.918C32.7732 42.8785 32.7722 42.837 32.7722 42.7935C32.7722 42.7442 32.7732 42.6731 32.7752 42.5802Z" fill="white"/>
</svg>
